<svg xmlns="http://www.w3.org/2000/svg" xmlns:xlink="http://www.w3.org/1999/xlink" width="500" zoomAndPan="magnify" viewBox="0 0 375 112.499997" height="150" preserveAspectRatio="xMidYMid meet" version="1.0"><defs><g/></defs><g fill="#000000" fill-opacity="1"><g transform="translate(18.829175, 89.177899)"><g><path d="M 59.859375 -31.15625 C 59.859375 -24.863281 58.628906 -19.351562 56.171875 -14.625 C 53.710938 -9.90625 50.226562 -6.285156 45.71875 -3.765625 C 41.21875 -1.253906 36.019531 0 30.125 0 L 7.28125 0 L 7.28125 -61.0625 L 27.484375 -61.0625 C 37.828125 -61.0625 45.804688 -58.46875 51.421875 -53.28125 C 57.046875 -48.101562 59.859375 -40.726562 59.859375 -31.15625 Z M 51.53125 -31.15625 C 51.53125 -38.726562 49.457031 -44.5 45.3125 -48.46875 C 41.164062 -52.445312 35.164062 -54.4375 27.3125 -54.4375 L 15.5625 -54.4375 L 15.5625 -6.625 L 29.171875 -6.625 C 33.648438 -6.625 37.585938 -7.609375 40.984375 -9.578125 C 44.378906 -11.546875 46.984375 -14.378906 48.796875 -18.078125 C 50.617188 -21.773438 51.53125 -26.132812 51.53125 -31.15625 Z M 51.53125 -31.15625 "/></g></g></g><g fill="#000000" fill-opacity="1"><g transform="translate(40.602991, 89.177899)"><g><path d="M 59.859375 -31.15625 C 59.859375 -24.863281 58.628906 -19.351562 56.171875 -14.625 C 53.710938 -9.90625 50.226562 -6.285156 45.71875 -3.765625 C 41.21875 -1.253906 36.019531 0 30.125 0 L 7.28125 0 L 7.28125 -61.0625 L 27.484375 -61.0625 C 37.828125 -61.0625 45.804688 -58.46875 51.421875 -53.28125 C 57.046875 -48.101562 59.859375 -40.726562 59.859375 -31.15625 Z M 51.53125 -31.15625 C 51.53125 -38.726562 49.457031 -44.5 45.3125 -48.46875 C 41.164062 -52.445312 35.164062 -54.4375 27.3125 -54.4375 L 15.5625 -54.4375 L 15.5625 -6.625 L 29.171875 -6.625 C 33.648438 -6.625 37.585938 -7.609375 40.984375 -9.578125 C 44.378906 -11.546875 46.984375 -14.378906 48.796875 -18.078125 C 50.617188 -21.773438 51.53125 -26.132812 51.53125 -31.15625 Z M 51.53125 -31.15625 "/></g></g></g><g fill="#000000" fill-opacity="1"><g transform="translate(104.709669, 89.177899)"><g><path d="M 3.46875 -17.734375 L 3.46875 -28.296875 L 26 -28.296875 L 26 -17.734375 Z M 3.46875 -17.734375 "/></g></g><g transform="translate(134.267838, 89.177899)"><g><path d="M 34.453125 -9.1875 C 42.171875 -9.1875 47.53125 -13.054688 50.53125 -20.796875 L 61.671875 -16.59375 C 59.273438 -10.707031 55.757812 -6.328125 51.125 -3.453125 C 46.488281 -0.578125 40.929688 0.859375 34.453125 0.859375 C 24.628906 0.859375 17.035156 -1.914062 11.671875 -7.46875 C 6.316406 -13.03125 3.640625 -20.8125 3.640625 -30.8125 C 3.640625 -40.84375 6.222656 -48.546875 11.390625 -53.921875 C 16.566406 -59.296875 24.066406 -61.984375 33.890625 -61.984375 C 41.054688 -61.984375 46.894531 -60.546875 51.40625 -57.671875 C 55.914062 -54.796875 59.078125 -50.566406 60.890625 -44.984375 L 49.625 -41.90625 C 48.675781 -44.96875 46.804688 -47.398438 44.015625 -49.203125 C 41.222656 -51.015625 37.9375 -51.921875 34.15625 -51.921875 C 28.375 -51.921875 23.988281 -50.128906 21 -46.546875 C 18.007812 -42.960938 16.515625 -37.71875 16.515625 -30.8125 C 16.515625 -23.789062 18.050781 -18.429688 21.125 -14.734375 C 24.207031 -11.035156 28.648438 -9.1875 34.453125 -9.1875 Z M 34.453125 -9.1875 "/></g></g><g transform="translate(198.368325, 89.177899)"><g><path d="M 50.75 -23.484375 C 50.75 -15.890625 48.640625 -9.929688 44.421875 -5.609375 C 40.203125 -1.296875 34.367188 0.859375 26.921875 0.859375 C 19.609375 0.859375 13.867188 -1.304688 9.703125 -5.640625 C 5.546875 -9.972656 3.46875 -15.921875 3.46875 -23.484375 C 3.46875 -31.023438 5.546875 -36.957031 9.703125 -41.28125 C 13.867188 -45.601562 19.691406 -47.765625 27.171875 -47.765625 C 34.828125 -47.765625 40.671875 -45.675781 44.703125 -41.5 C 48.734375 -37.320312 50.75 -31.316406 50.75 -23.484375 Z M 38.015625 -23.484375 C 38.015625 -29.066406 37.101562 -33.113281 35.28125 -35.625 C 33.457031 -38.132812 30.8125 -39.390625 27.34375 -39.390625 C 19.945312 -39.390625 16.25 -34.085938 16.25 -23.484375 C 16.25 -18.253906 17.148438 -14.273438 18.953125 -11.546875 C 20.765625 -8.816406 23.375 -7.453125 26.78125 -7.453125 C 34.269531 -7.453125 38.015625 -12.796875 38.015625 -23.484375 Z M 38.015625 -23.484375 "/></g></g><g transform="translate(252.587195, 89.177899)"><g><path d="M 36.578125 0 C 36.460938 -0.4375 36.328125 -1.523438 36.171875 -3.265625 C 36.015625 -5.015625 35.9375 -6.46875 35.9375 -7.625 L 35.75 -7.625 C 33.125 -1.96875 28.128906 0.859375 20.765625 0.859375 C 15.296875 0.859375 11.070312 -1.269531 8.09375 -5.53125 C 5.125 -9.789062 3.640625 -15.75 3.640625 -23.40625 C 3.640625 -31.175781 5.207031 -37.175781 8.34375 -41.40625 C 11.476562 -45.644531 15.921875 -47.765625 21.671875 -47.765625 C 24.992188 -47.765625 27.859375 -47.070312 30.265625 -45.6875 C 32.679688 -44.300781 34.539062 -42.234375 35.84375 -39.484375 L 35.9375 -39.484375 L 35.84375 -47.203125 L 35.84375 -64.328125 L 48.03125 -64.328125 L 48.03125 -10.234375 C 48.03125 -7.335938 48.144531 -3.925781 48.375 0 Z M 36.015625 -23.703125 C 36.015625 -28.765625 35.171875 -32.660156 33.484375 -35.390625 C 31.796875 -38.117188 29.300781 -39.484375 26 -39.484375 C 22.738281 -39.484375 20.3125 -38.160156 18.71875 -35.515625 C 17.132812 -32.867188 16.34375 -28.832031 16.34375 -23.40625 C 16.34375 -12.769531 19.535156 -7.453125 25.921875 -7.453125 C 29.128906 -7.453125 31.613281 -8.859375 33.375 -11.671875 C 35.132812 -14.492188 36.015625 -18.503906 36.015625 -23.703125 Z M 36.015625 -23.703125 "/></g></g><g transform="translate(306.806065, 89.177899)"><g><path d="M 25.40625 0.859375 C 18.351562 0.859375 12.929688 -1.222656 9.140625 -5.390625 C 5.359375 -9.566406 3.46875 -15.660156 3.46875 -23.671875 C 3.46875 -31.410156 5.390625 -37.359375 9.234375 -41.515625 C 13.078125 -45.679688 18.523438 -47.765625 25.578125 -47.765625 C 32.304688 -47.765625 37.445312 -45.53125 41 -41.0625 C 44.550781 -36.601562 46.328125 -30.066406 46.328125 -21.453125 L 46.328125 -21.109375 L 16.25 -21.109375 C 16.25 -16.546875 17.09375 -13.097656 18.78125 -10.765625 C 20.476562 -8.441406 22.882812 -7.28125 26 -7.28125 C 30.3125 -7.28125 33.03125 -9.144531 34.15625 -12.875 L 45.640625 -11.875 C 42.316406 -3.382812 35.570312 0.859375 25.40625 0.859375 Z M 25.40625 -40.09375 C 22.539062 -40.09375 20.332031 -39.09375 18.78125 -37.09375 C 17.238281 -35.101562 16.425781 -32.316406 16.34375 -28.734375 L 34.546875 -28.734375 C 34.316406 -32.515625 33.40625 -35.351562 31.8125 -37.25 C 30.21875 -39.144531 28.082031 -40.09375 25.40625 -40.09375 Z M 25.40625 -40.09375 "/></g></g></g></svg>